<?xml version="1.0" encoding="UTF-8"?>
<svg id="Layer_2" data-name="Layer 2" xmlns="http://www.w3.org/2000/svg" viewBox="0 0 29.55 27.78">
  <defs>
    <style>
      .cls-1 {
        fill: #231f20;
      }

      .cls-2 {
        fill: #ebb548;
      }
    </style>
  </defs>
  <g id="Layer_1-2" data-name="Layer 1">
    <g>
      <g>
        <path class="cls-2" d="M14.64,26.83c-1.94,0-3.79-.41-5.5-1.23-.33-.15-.64-.34-.95-.52-.31-.18-.61-.36-.93-.51l-.11-.05-.02-.12c-.05-.23.11-.35.18-.4.28-.22.63-.35.95-.47.16-.06.31-.12.44-.18.1-.09.21-.19.38-.19h.1s.22.06.22.06l-.02.18c.06.02.11.04.15.07,1.44.99,3.25,1.52,5.22,1.52,3.05,0,6.14-1.28,8.05-3.33,3.02-3.24,3.95-7.89,2.35-11.84-.53-1.33-1.37-2.36-2.26-3.46-.17-.36.09-.66.26-.86.61-.75,1.25-1.3,1.87-1.84.36-.31.72-.62,1.07-.97l.08-.07c.37-.36.71-.7,1.1-1.05.1-.09.21-.21.33-.33.33-.34.71-.73,1.09-.9.09-.04.19-.06.28-.06h.09s.14.08.14.08c.25.25-.04.66-.35,1.09-.05.08-.1.14-.12.17-.7,1.25-2.01,3.57-2.2,5.29-.08.79.23,1.69.54,2.56.14.4.28.79.37,1.15.84,3.24.33,6.82-1.41,9.81-2.29,3.96-6.66,6.43-11.4,6.43Z"/>
        <path class="cls-1" d="M28.97.5s.03,0,.05,0c.13.13-.41.8-.51.96-.84,1.5-2.04,3.69-2.23,5.39-.13,1.22.61,2.63.92,3.8.84,3.24.29,6.74-1.38,9.62-2.32,4-6.72,6.3-11.18,6.3-1.83,0-3.68-.39-5.39-1.21-.65-.31-1.23-.73-1.88-1.03-.02-.09.04-.12.1-.17.35-.28.95-.42,1.33-.61.1-.05.15-.17.27-.17.01,0,.03,0,.05,0-.03.24.16.19.27.26,1.55,1.07,3.44,1.56,5.36,1.56,3.07,0,6.23-1.26,8.24-3.41,3.01-3.23,4.08-7.95,2.4-12.11-.55-1.35-1.39-2.4-2.3-3.52-.08-.19.2-.47.32-.62.85-1.05,1.9-1.78,2.86-2.71.39-.38.76-.74,1.17-1.12.38-.35.89-.98,1.36-1.18.06-.03.12-.04.18-.04M28.97,0c-.13,0-.26.03-.38.08-.42.19-.82.59-1.17.95-.12.12-.22.23-.32.32-.39.36-.74.7-1.12,1.07l-.06.06c-.34.33-.71.65-1.06.96-.63.54-1.27,1.1-1.84,1.8l-.06.07c-.19.22-.54.63-.34,1.07l.03.06.04.05c.88,1.08,1.71,2.11,2.23,3.4,1.56,3.86.65,8.41-2.3,11.58-1.87,2.01-4.89,3.25-7.87,3.25-1.92,0-3.68-.51-5.08-1.47,0,0-.02-.01-.03-.02l.03-.22-.43-.1h-.06s-.1-.02-.1-.02c-.27,0-.44.16-.51.23-.1.05-.25.11-.4.16-.33.13-.71.27-1,.5-.3.23-.32.48-.28.66l.05.25.23.11c.31.14.6.32.92.5.31.18.63.37.96.53,1.75.83,3.63,1.26,5.61,1.26,4.83,0,9.28-2.51,11.62-6.55,1.76-3.05,2.29-6.69,1.43-10-.1-.38-.23-.76-.38-1.17-.3-.85-.6-1.72-.53-2.45.18-1.67,1.47-3.96,2.16-5.2.02-.03.06-.09.1-.15.34-.47.72-1.01.32-1.41l-.12-.13-.18-.02s-.07,0-.11,0h0Z"/>
      </g>
      <g>
        <path class="cls-2" d="M.43,27.53l-.1-.09-.07-.08v-.18c0-.21.14-.44.27-.66.08-.14.17-.31.19-.4.19-.36.35-.64.5-.92.77-1.34,1.49-2.6,1.86-4.06.02-.1.06-.2.11-.31.05-.13.11-.27.11-.36,0-.13-.18-.54-.28-.76-.07-.15-.12-.28-.16-.38C.83,13.7,1.65,8.85,5.27,4.91,7.66,2.32,11.19.84,14.96.84c2.43,0,4.76.63,6.72,1.81.31.19.6.36.63.67.02.27-.19.49-.37.66-.28.25-.52.35-.79.35-.18,0-.36-.05-.59-.12-.38-.12-.76-.3-1.13-.47-.32-.15-.65-.3-.98-.42-1.01-.35-2.4-.56-3.82-.56-1.21,0-2.36.15-3.24.42-3.15.96-5.86,3.51-7.06,6.67-1.4,3.67-.82,7.33,1.71,10.89.06.09.16.19.25.3.17.19.35.4.44.59.05.09.14.26.02.46-.04.07-.08.09-.51.35-.14.08-.28.17-.33.2-.57.41-.99.88-1.44,1.38-.23.26-.47.52-.72.78-.54.54-1.14,1.04-1.71,1.52-.24.2-.48.4-.71.6-.04.04-.1.1-.16.17-.26.28-.4.41-.55.44h-.09s-.11,0-.11,0Z"/>
        <path class="cls-1" d="M14.96,1.09c2.31,0,4.61.58,6.59,1.78.5.3.74.47.22.92-.24.21-.42.29-.62.29-.15,0-.3-.04-.51-.11-.7-.22-1.4-.64-2.1-.88-1.08-.38-2.5-.57-3.9-.57-1.2,0-2.38.14-3.31.43-3.27.99-6.01,3.64-7.22,6.82-1.53,4.01-.68,7.72,1.74,11.13.18.25.55.59.67.85.03.07.09.13.04.22-.02.04-.66.4-.77.48-.89.64-1.44,1.44-2.19,2.19-.75.75-1.62,1.43-2.41,2.11-.14.12-.46.53-.6.55-.02,0-.03,0-.04,0-.04,0-.04-.02-.04-.08.02-.29.41-.75.45-1.04.9-1.62,1.9-3.15,2.36-4.96.06-.22.21-.51.23-.72.02-.27-.34-.93-.45-1.24-1.86-5.17-1.44-10.04,2.36-14.16,2.41-2.62,5.97-3.99,9.51-3.99M14.96.59c-3.85,0-7.45,1.51-9.88,4.15C1.39,8.75.56,13.69,2.62,19.41c.04.1.1.24.17.4.09.19.24.55.25.66,0,.03-.06.18-.09.27-.05.12-.09.24-.12.34-.36,1.43-1.08,2.68-1.84,4-.16.28-.32.56-.48.84l-.04.08v.09c-.03.06-.12.21-.17.32-.14.25-.28.5-.3.77,0,.08-.01.28.14.44l.15.16h.24s.08,0,.13,0c.24-.04.42-.22.69-.51.06-.06.11-.12.14-.15.23-.2.47-.4.71-.6.58-.49,1.18-.99,1.73-1.54.26-.26.5-.53.73-.79.44-.49.85-.96,1.4-1.35.05-.03.18-.11.31-.19.45-.26.51-.3.59-.43.13-.21.13-.44,0-.68-.11-.24-.3-.45-.49-.66-.09-.1-.17-.19-.23-.28-2.51-3.54-3.06-7.02-1.68-10.66,1.17-3.08,3.82-5.58,6.9-6.52.86-.26,1.98-.4,3.17-.4,1.39,0,2.75.2,3.74.54.31.11.62.25.95.41.38.17.77.36,1.16.48.24.08.45.13.66.13.43,0,.73-.22.95-.42.21-.19.49-.48.46-.87-.04-.43-.42-.66-.75-.86-2.01-1.21-4.38-1.85-6.85-1.85h0Z"/>
      </g>
      <g>
        <path class="cls-2" d="M11.01,22.35c-.49-.08-.93-.52-1.33-1.29-1.09-2.12-.62-4.9,1.11-6.48.26-.24.55-.41.84-.58.4-.23.77-.45.96-.8.05-.1.1-.22.16-.34.14-.34.31-.73.6-.92.22-.14,1.45-.47,1.72-.48h0c.27,0,.44.07.6.14.13.05.24.1.37.1.05,0,.09,0,.14-.02.44-.1,1.67-.99,2.01-1.37,1.14-1.27,1.33-3.33.43-4.7l-.37-.56.64.18c1.04.29,1.52,1.65,1.68,2.23.57,2.06.08,3.84-1.44,5.3-.26.25-.6.48-.93.69-.32.21-.61.4-.78.58-.15.16-.26.37-.37.59-.2.38-.43.81-.89,1.08-.33.19-.63.28-.96.28-.21,0-.41-.04-.62-.08-.17-.03-.36-.07-.57-.08h0c-.74,0-1.93.96-2.44,1.63-.94,1.23-1.29,3.32-.31,4.48l.44.52-.68-.12ZM13.58,14.55c-.23.02-.82.21-.93.28-.02.02-.05.04-.07.06.1-.05.21-.1.33-.14.17-.05.48-.11.72-.14-.02-.02-.04-.04-.05-.06ZM14.47,14.6c.13,0,.27.02.4.02.52,0,.74-.14.86-.54.05-.17.03-.23,0-.32-.02-.08-.05-.17-.05-.31.02-.35.45-.43.83-.5.09-.02.16-.03.2-.04.12-.04.45-.21.71-.36-.24.05-.43.1-.62.15-.28.08-.57.16-.84.19-.07,0-.15,0-.22,0-.16,0-.31-.01-.45-.03-.12-.01-.23-.02-.35-.02-.22,0-.39.05-.58.15-.42.24-.36.77-.24,1.43l.03.14c.1,0,.2,0,.31.02Z"/>
        <path class="cls-1" d="M18.82,5.48c.81.23,1.3,1.29,1.51,2.05.55,1.98.09,3.66-1.38,5.05-.5.48-1.35.89-1.72,1.29-.43.46-.55,1.24-1.21,1.63-.32.19-.58.25-.83.25-.37,0-.71-.13-1.17-.16-.02,0-.04,0-.06,0-.85,0-2.11,1.1-2.6,1.73-.96,1.25-1.4,3.51-.31,4.79-.52-.09-.92-.71-1.15-1.16-1.02-1.97-.6-4.67,1.05-6.18.6-.55,1.48-.76,1.85-1.43.19-.34.34-.96.67-1.17.18-.11,1.37-.43,1.6-.44.01,0,.02,0,.03,0,.36,0,.58.24.93.24.06,0,.13,0,.2-.02.51-.12,1.78-1.04,2.14-1.45,1.18-1.32,1.44-3.5.45-5M15.76,12.65c-.29,0-.54-.05-.8-.05-.22,0-.45.04-.71.19-.61.34-.47,1.11-.36,1.7-.09-.02-.13-.14-.2-.18-.02,0-.04-.01-.07-.01-.25,0-.97.22-1.11.32-.23.16-.4.54-.46.81.35-.08.58-.34.93-.43.21-.06.67-.14.88-.16.06,0,.12,0,.18,0,.26,0,.55.04.82.04.48,0,.92-.11,1.1-.71.12-.39-.04-.44-.03-.69,0-.21.68-.25.87-.32.19-.07,1.12-.53,1.16-.68.05-.16-.06-.21-.2-.21s-.3.04-.4.06c-.45.08-.97.29-1.41.33-.07,0-.13,0-.19,0M17.67,4.64l.74,1.11c.84,1.27.66,3.2-.4,4.39-.33.37-1.51,1.21-1.88,1.29-.03,0-.06.01-.08.01-.07,0-.15-.03-.27-.08-.17-.07-.38-.16-.66-.16h-.05c-.28.01-1.56.34-1.84.52-.36.23-.54.66-.7,1.03-.05.12-.09.23-.14.32-.16.29-.49.48-.87.7-.3.17-.6.35-.88.61-1.8,1.65-2.3,4.57-1.16,6.78.44.85.95,1.33,1.51,1.42l1.35.23-.89-1.05c-.89-1.05-.54-3.04.32-4.17.47-.62,1.61-1.53,2.2-1.53.22.01.38.04.56.08.21.04.43.08.66.08.37,0,.72-.1,1.09-.32.53-.31.78-.79.99-1.18.11-.21.21-.4.34-.54.15-.16.44-.35.73-.54.34-.22.69-.45.97-.72,1.6-1.52,2.11-3.39,1.51-5.54-.17-.61-.69-2.08-1.86-2.4l-1.29-.36h0ZM14.37,14.34c-.11-.65-.12-.98.13-1.12.15-.09.29-.12.46-.12.11,0,.22.01.33.02.08,0,.16.02.24.02-.05.08-.08.18-.09.3,0,.18.03.31.06.39.02.07.02.07,0,.17-.08.25-.18.36-.62.36-.13,0-.26,0-.39-.02-.04,0-.07,0-.11,0h0Z"/>
      </g>
      <g>
        <path class="cls-2" d="M7.94,16.29c-.61,0-1.17-.14-1.54-.38-.38-.25-1.01-1.12-1.01-1.65v-1.27l.41.36c.17.15.27.33.37.51.08.14.15.27.24.37.27.27.71.43,1.18.43.53,0,.98-.21,1.21-.55.37-.55.52-1.55.67-2.51.13-.88.27-1.79.58-2.46.57-1.22,1.93-2.11,3.23-2.11.49,0,.95.12,1.37.36.85.48,1.31,1.43,1.17,2.42-.13.93-.79,1.64-1.72,1.86-.19.05-.44.1-.68.1-.52,0-.89-.27-1.11-.82l-.24-.61.59.29c.23.12.43.17.63.17.18,0,.38-.04.62-.14.33-.13.44-.25.48-.52.11-.79-.06-1.19-.6-1.41-.28-.11-.53-.17-.76-.17-1.35,0-1.73,2.12-2.03,3.82-.12.65-.23,1.26-.38,1.69-.09.24-.6,1.35-.82,1.59-.37.39-1.06.63-1.86.63Z"/>
        <path class="cls-1" d="M13.28,7.29c.43,0,.85.1,1.25.32,1.57.89,1.41,3.37-.48,3.82-.23.05-.43.09-.62.09-.38,0-.67-.16-.87-.66.27.13.5.2.75.2.23,0,.45-.05.71-.16.35-.14.58-.31.63-.71.1-.75,0-1.37-.76-1.67-.32-.13-.6-.19-.85-.19-2.12,0-2.09,4.15-2.64,5.67-.1.28-.59,1.32-.77,1.51-.35.37-1.02.55-1.68.55-.54,0-1.07-.12-1.41-.34-.35-.23-.9-1.03-.9-1.44v-.72c.26.22.35.62.6.87.33.33.85.5,1.36.5.56,0,1.12-.21,1.42-.66.75-1.11.63-3.63,1.27-5,.52-1.12,1.77-1.96,3-1.96M13.28,6.79c-1.42,0-2.84.93-3.46,2.25-.33.7-.46,1.63-.6,2.52-.14.94-.29,1.91-.63,2.41-.19.28-.56.44-1.01.44-.4,0-.78-.14-1.01-.36-.07-.07-.13-.18-.2-.31-.1-.19-.22-.41-.43-.59l-.83-.71v1.81c0,.62.68,1.57,1.13,1.86.41.27,1.02.42,1.68.42.88,0,1.62-.26,2.04-.71.27-.28.79-1.43.87-1.68.16-.45.27-1.04.39-1.73.13-.74.28-1.55.51-2.23l.33.84c.26.65.71.98,1.34.98.26,0,.53-.06.73-.1,1.03-.24,1.76-1.03,1.91-2.07.16-1.09-.35-2.13-1.29-2.67-.45-.26-.96-.39-1.49-.39h0ZM11.85,9.95c.27-.66.63-1.13,1.18-1.13.19,0,.42.05.66.15.37.15.55.38.45,1.14-.02.14-.04.2-.32.32-.21.08-.37.12-.52.12-.16,0-.33-.05-.52-.14l-.93-.46h0Z"/>
      </g>
      <g>
        <path class="cls-2" d="M16.55,20.49c-.71,0-1.35-.29-1.8-.83-.5-.6-.7-1.44-.55-2.3.18-.98.72-1.31,1.61-1.55.11-.03.4-.1.72-.1.36,0,.63.09.8.26.13.13.19.3.19.5v.29s-.29-.04-.29-.04c-.2-.03-.36-.05-.52-.05-.22,0-.4.05-.62.16-.41.21-.64.53-.63.91.01.43.31.82.79,1.04.26.12.44.17.58.17.18,0,.36-.07.66-.25.9-.55,1.12-1.93,1.32-3.15.05-.33.1-.64.17-.91.5-2.24,1.4-3.38,2.76-3.48.09,0,.18-.01.27-.01.75,0,1.38.25,1.82.72.48.51.7,1.24.64,2.1l-.05.69-1.15-1.58c-.27-.18-.54-.28-.84-.28-.21,0-.44.05-.73.16-.55.2-.73.51-.91,1.07-.16.5-.25,1.11-.34,1.75-.2,1.34-.4,2.74-1.27,3.62-.36.37-1.47.89-1.96,1.01-.24.06-.48.09-.71.09Z"/>
        <path class="cls-1" d="M22.03,11.39c1.48,0,2.31,1.04,2.21,2.55l-.74-1.02c-.37-.27-.69-.39-1.04-.39-.25,0-.51.06-.82.17-.63.24-.86.61-1.06,1.23-.49,1.56-.33,4.03-1.55,5.27-.32.32-1.4.83-1.84.95-.22.06-.44.08-.64.08-1.43,0-2.37-1.3-2.1-2.83.16-.87.62-1.14,1.43-1.36.17-.04.41-.09.65-.09.38,0,.74.11.74.51-.21-.03-.39-.05-.56-.05-.24,0-.46.05-.73.19-1.15.59-.93,1.91.18,2.4.28.12.49.19.69.19.24,0,.47-.09.79-.29,1.25-.77,1.31-2.92,1.6-4.22.3-1.34.92-3.16,2.54-3.29.09,0,.17,0,.25,0M22.03,10.89c-.09,0-.19,0-.29.01-1.46.11-2.47,1.35-2.99,3.68-.06.28-.11.59-.17.93-.18,1.11-.41,2.49-1.21,2.98-.29.18-.42.22-.53.22s-.26-.04-.48-.15c-.38-.17-.64-.49-.64-.82,0-.28.17-.52.49-.68.21-.11.36-.13.51-.13.14,0,.31.02.48.05l.57.08v-.57c0-.27-.08-.5-.26-.68-.22-.22-.55-.33-.97-.33-.35,0-.66.07-.78.11-.79.21-1.58.52-1.79,1.75-.17.93.05,1.85.6,2.5.49.59,1.2.91,1.99.91.25,0,.51-.03.77-.1.46-.12,1.66-.65,2.08-1.08.93-.95,1.14-2.44,1.34-3.76.09-.63.18-1.23.33-1.71.18-.57.33-.76.75-.91.26-.1.47-.14.64-.14.22,0,.43.07.69.25l.7.95.81,1.11.09-1.37c.06-.93-.18-1.72-.71-2.28-.49-.52-1.18-.8-2-.8h0Z"/>
      </g>
      <g>
        <path class="cls-2" d="M15.03,23.09c-.57,0-1.15-.05-1.73-.14l-.29-.05.1-.28c.05-.16.19-.26.37-.26.07,0,.13.01.18.02,3.84-.23,7.23-2.52,8.68-5.82.35-.81.51-1.62.67-2.47l.06-.3.28.12c.55.23.96.8.98,1.35.06,2.11-2.02,4.7-3.52,5.86-1.65,1.29-3.65,1.96-5.78,1.96Z"/>
        <path class="cls-1" d="M23.25,14.14c.44.18.81.64.83,1.13.06,1.96-1.94,4.51-3.42,5.66-1.65,1.29-3.59,1.91-5.62,1.91-.56,0-1.12-.05-1.69-.14.02-.07.07-.09.13-.09.08,0,.17.03.23.03,0,0,0,0,0,0,3.78-.24,7.32-2.49,8.85-5.98.36-.83.52-1.64.69-2.52M22.87,13.44l-.12.6c-.16.84-.31,1.63-.66,2.42-1.4,3.2-4.69,5.43-8.38,5.68-.08-.02-.16-.03-.24-.03-.28,0-.52.16-.61.43l-.19.56.58.1c.59.1,1.19.15,1.77.15,2.19,0,4.24-.7,5.93-2.02,1.54-1.2,3.68-3.88,3.61-6.07-.02-.66-.49-1.31-1.14-1.58l-.57-.23h0Z"/>
      </g>
      <g>
        <path class="cls-2" d="M6.66,13.59c-.47-.03-1.02-.71-1.07-1.09-.14-.95.67-2.68.99-3.26,1.33-2.4,3.52-3.96,6.51-4.63.68-.15,1.33-.23,1.99-.23.62,0,1.25.07,1.9.2l-.02.49-.82.1c-4.21.06-7.88,2.93-8.95,6.98-.05.18-.08.36-.12.55-.04.24-.09.48-.16.7l-.06.19h-.2Z"/>
        <path class="cls-1" d="M15.08,4.64c.61,0,1.22.07,1.85.2l-.82.1c-4.29.06-8.06,3.03-9.16,7.17-.11.4-.15.84-.27,1.25-.32-.02-.8-.59-.84-.88-.12-.8.57-2.39.96-3.11,1.37-2.47,3.63-3.9,6.35-4.5.66-.15,1.29-.22,1.93-.22M15.08,4.14h0c-.68,0-1.34.08-2.04.23-3.06.69-5.31,2.29-6.67,4.75-.33.6-1.17,2.4-1.02,3.42.07.48.69,1.26,1.3,1.3l.4.02.11-.38c.07-.25.12-.49.16-.73.03-.18.07-.36.11-.53,1.04-3.94,4.61-6.73,8.68-6.79h.03s.03,0,.03,0l.82-.1.04-.99c-.68-.14-1.32-.21-1.95-.21h0Z"/>
      </g>
      <g>
        <path class="cls-2" d="M8.49,20.77c-.15,0-.29-.12-.43-.3-1.12-1.35-1.95-2.88-2.42-4.42l-.04-.14.18-.18h.13c.19,0,.45.21.65.39.45.43.7,1.14.92,1.77.09.27.18.52.28.75l1.07,1.92-.21.21h-.13Z"/>
        <path class="cls-1" d="M5.9,15.97c.1,0,.41.27.47.33.59.56.81,1.69,1.15,2.43l.99,1.77s-.01,0-.02,0c-.07,0-.21-.17-.25-.21-1.05-1.27-1.89-2.75-2.37-4.33,0,0,.01,0,.02,0M5.9,15.47h-.2s-.17.15-.17.15l-.22.21.09.29c.48,1.57,1.33,3.13,2.46,4.5.17.21.36.39.63.39h.21l.17-.16.27-.27-.18-.33-.99-1.77c-.08-.17-.16-.42-.26-.69-.23-.65-.49-1.4-.99-1.86-.49-.47-.73-.47-.82-.47h0Z"/>
      </g>
      <g>
        <path class="cls-2" d="M23.81,11.76c-.72-.46-1-1.22-1.27-1.94-.09-.23-.17-.45-.27-.67-.17-.37-.38-.72-.58-1.07-.19-.33-.39-.66-.55-1l.41-.28c1.13,1.26,2.33,2.81,2.65,4.7l.09.56-.48-.31Z"/>
        <path class="cls-1" d="M21.36,6.97c1.17,1.31,2.29,2.8,2.59,4.58-.86-.56-1.05-1.63-1.45-2.51-.33-.72-.79-1.36-1.14-2.07M21.73,6.64l-.82.55c.17.35.37.69.56,1.02.21.36.41.69.57,1.05.1.21.18.43.26.65.27.73.58,1.56,1.37,2.06l.95.62-.19-1.12c-.33-1.96-1.55-3.54-2.71-4.83h0Z"/>
      </g>
      <g>
        <path class="cls-2" d="M16.69,18.72c-.28,0-.54-.11-.72-.3-.4-.42-.33-.78-.25-.96.14-.34.54-.57.96-.57.26,0,.49.09.65.26.12.13.27.36.25.76-.02.48-.38.82-.89.82Z"/>
        <path class="cls-1" d="M16.68,17.14c.35,0,.67.21.65.76-.01.38-.32.57-.64.57-.2,0-.4-.07-.54-.22-.58-.6,0-1.11.53-1.11M16.68,16.64c-.52,0-1.01.3-1.19.72-.08.19-.22.69.3,1.23.23.24.55.37.9.37.64,0,1.12-.44,1.14-1.06.02-.48-.17-.78-.32-.94-.21-.22-.5-.34-.83-.34h0Z"/>
      </g>
      <g>
        <path class="cls-2" d="M13.23,10.11c.16,0,.28-.04.36-.13.07-.07.1-.17.1-.28,0-.18-.11-.45-.42-.45v-.5c.59,0,.92.49.92.95,0,.24-.09.46-.24.63-.12.13-.35.28-.72.28v-.5Z"/>
        <path class="cls-1" d="M13.28,9c.43,0,.67.35.67.7,0-.35-.24-.7-.67-.7M13.95,9.7c0,.33-.22.66-.71.66.49,0,.71-.33.71-.66M13.28,8.5v1c.16,0,.17.18.17.2h.5s-.5,0-.5,0c0,.05-.01.09-.04.11-.04.04-.13.05-.18.05v1c.46,0,.75-.2.9-.36.2-.21.31-.49.31-.8,0-.59-.44-1.2-1.17-1.2h0Z"/>
      </g>
      <g>
        <path class="cls-2" d="M14.88,13.89c.2,0,.29-.04.32-.07l.54-.07h-.5c0-.1-.13-.26-.3-.26v-.5c.43,0,.8.35.8.76,0,.19-.09.36-.24.47-.15.11-.36.17-.62.17v-.5Z"/>
        <path class="cls-1" d="M14.94,13.25c.31,0,.55.27.55.51,0-.24-.24-.51-.55-.51M15.49,13.76c0,.2-.17.38-.61.38.44,0,.61-.18.61-.38M14.94,12.75v.89s-.04,0-.06,0v1c.31,0,.57-.07.76-.21.22-.16.34-.4.34-.67h0c0-.54-.49-1.01-1.05-1.01h0Z"/>
      </g>
    </g>
  </g>
</svg>