<?xml version="1.0" encoding="UTF-8"?>
<svg id="Layer_2" data-name="Layer 2" xmlns="http://www.w3.org/2000/svg" viewBox="0 0 21.97 28.96">
  <defs>
    <style>
      .cls-1 {
        fill: #231f20;
      }

      .cls-2 {
        fill: #ebb548;
      }
    </style>
  </defs>
  <g id="Layer_1-2" data-name="Layer 1">
    <g>
      <g>
        <path class="cls-2" d="M9.11,6.95c-1.03-1.44-.76-2.33.18-3.66.02-.04.04-.08.05-.13.03-.11.11-.38.46-.38.07,0,.16.01.26.04l.25.06-.07.25c-.14.51-.2,1.19-.27,1.86-.11,1.21-.19,1.84-.54,2.04l-.19.11-.13-.18Z"/>
        <path class="cls-1" d="M9.79,3.04c.05,0,.12,0,.21.03-.35,1.25-.24,3.5-.69,3.74-.96-1.35-.7-2.13.18-3.37.14-.19.05-.4.3-.4M9.79,2.54h0c-.36,0-.59.19-.7.56,0,.02,0,.04-.02.06-.96,1.36-1.28,2.4-.17,3.95l.26.36.39-.21c.49-.27.56-1.05.67-2.23.06-.65.12-1.32.26-1.81l.14-.5-.51-.12c-.12-.03-.23-.04-.32-.04h0Z"/>
      </g>
      <g>
        <g>
          <path class="cls-2" d="M13.55,26.8c-.32,0-.6-.21-.69-.51-.25-.91-1.33-1.97-1.92-2.06-.52.09-1.59,1.15-1.84,2.06-.08.3-.36.51-.69.51h0c-.08,0-.15-.01-.23-.04l-.57-.19c-.38-.13-.63-.5-.6-.9.12-1.55.92-1.8,2.13-2.18.13-.04.27-.09.42-.13,0-.06-.01-.12-.03-.18-.11-.21-1.79-2.51-2.1-2.91-.15-.19-.36-.34-.57-.48-.2-.14-.39-.27-.5-.43-.17-.23-.27-.56-.38-.9-.12-.37-.23-.75-.44-1.05-.4-.59-.94-1.1-1.52-1.63-.82-.77-1.67-1.56-2.14-2.67-.06-.14-.07-.35.02-.5l.07-.11.2-.04h.04l.07.02c.43.16.88.51,1.35.88.55.43,1.13.88,1.55.9.14-.05.4-.73.42-1.09.11-1.56-.49-2.3-1.19-3.15-.36-.44-.73-.9-1.05-1.51-.45-.86-.79-1.93-.9-2.85l-.07-.56,3.11,2.21.34.02c.14-1.03.07-2.06,0-3.14-.06-.92-.12-1.87-.04-2.82.02-.32.09-1.11.64-1.11h.23s.02.23.02.23c.08,1.04.63,2.19,1.17,3.29.56,1.17,1.14,2.38,1.21,3.52.05.93-.18,2.07-.4,3.17-.18.88-.36,1.78-.4,2.56-.14,3.14.66,7.25,2.71,9.02,2.06-1.77,2.85-5.88,2.71-9.02-.03-.77-.22-1.68-.4-2.55-.22-1.1-.46-2.24-.4-3.17.06-1.14.64-2.35,1.21-3.52.53-1.11,1.08-2.25,1.17-3.29l.02-.23h.23c.55,0,.62.8.64,1.1.08.97.02,1.92-.04,2.84-.07,1.08-.13,2.11,0,3.14l.34-.02,3.11-2.21-.07.56c-.11.92-.45,1.99-.9,2.85-.32.61-.69,1.07-1.05,1.51-.7.85-1.3,1.59-1.19,3.15.02.35.27,1.04.43,1.09.41-.02.98-.47,1.54-.9.47-.37.92-.72,1.34-.87l.04-.02h.21s.14.14.14.14c.1.15.08.36.02.5-.46,1.1-1.32,1.9-2.14,2.67-.57.53-1.11,1.04-1.52,1.63-.21.3-.33.68-.44,1.05-.11.34-.21.66-.38.9-.12.16-.3.29-.5.43-.21.14-.42.29-.57.48-.31.4-1.99,2.7-2.11,2.93-.02.05-.03.11-.03.17.15.05.29.09.42.13,1.21.38,2,.63,2.13,2.18.03.41-.21.78-.6.9l-.57.19c-.07.02-.15.04-.23.04Z"/>
          <path class="cls-1" d="M15.52.5c.33,0,.37.66.39.88.17,2.09-.33,4.16,0,6.21l.64-.04,2.7-1.93c-.11.91-.45,1.96-.88,2.77-.94,1.79-2.44,2.33-2.27,4.8.02.29.28,1.32.67,1.32,0,0,0,0,.01,0,.88-.05,2.07-1.46,2.96-1.79.01,0,.02,0,.03,0,.1,0,.11.19.06.3-.76,1.8-2.62,2.77-3.63,4.25-.43.63-.5,1.51-.81,1.95-.2.27-.75.5-1.07.9-.28.36-2.08,2.81-2.14,2.99-.05.15-.06.3-.02.45,1.54.52,2.4.56,2.52,2.15.02.29-.15.56-.42.64l-.57.19s-.1.02-.15.02c-.2,0-.39-.12-.44-.33-.26-.95-1.38-2.13-2.12-2.24-.74.12-1.86,1.29-2.12,2.24-.06.2-.24.33-.44.33-.05,0-.1,0-.15-.02l-.57-.19c-.27-.09-.45-.36-.42-.64.12-1.59.98-1.62,2.52-2.15.04-.15.03-.3-.02-.45-.06-.18-1.86-2.62-2.14-2.99-.32-.41-.87-.63-1.07-.9-.31-.43-.39-1.32-.81-1.95-1.01-1.49-2.87-2.45-3.63-4.25-.04-.11-.04-.3.06-.3,0,0,.02,0,.03,0,.89.32,2.08,1.74,2.96,1.79,0,0,0,0,.01,0,.39,0,.65-1.03.67-1.32.17-2.47-1.33-3-2.27-4.8-.43-.81-.77-1.86-.88-2.77l2.7,1.93.64.04c.33-2.05-.17-4.11,0-6.21.02-.23.06-.88.39-.88.18,2.2,2.25,4.65,2.37,6.81.09,1.64-.72,3.94-.8,5.7-.13,2.89.57,7.49,2.96,9.36,2.4-1.87,3.09-6.46,2.96-9.36-.08-1.76-.89-4.06-.8-5.7.12-2.16,2.19-4.6,2.37-6.81M15.06,0l-.04.46c-.08,1-.62,2.12-1.14,3.2-.57,1.19-1.16,2.42-1.23,3.61-.05.97.18,2.12.41,3.23.18.87.36,1.76.39,2.52.13,3-.59,6.89-2.47,8.67-1.87-1.78-2.6-5.67-2.47-8.67.03-.75.22-1.65.39-2.52.23-1.12.46-2.27.41-3.23-.07-1.19-.66-2.42-1.23-3.61-.52-1.09-1.06-2.21-1.14-3.2l-.04-.46h-.46c-.78,0-.86,1-.89,1.33-.08.99-.02,1.95.04,2.88.06.99.12,1.93.02,2.86h-.04s-2.59-1.85-2.59-1.85l-.92-.66.14,1.12c.11.95.46,2.05.93,2.94.33.63.73,1.12,1.08,1.55.69.85,1.23,1.52,1.13,2.98-.01.2-.15.66-.27.84-.34-.09-.86-.5-1.3-.83-.49-.38-.95-.74-1.41-.91l-.08-.03h-.12c-.19,0-.37.09-.48.25-.15.23-.13.53-.05.73.49,1.15,1.36,1.97,2.2,2.75.56.52,1.09,1.02,1.48,1.59.19.27.3.64.41.98.11.36.22.7.41.97.14.2.35.34.56.49.19.13.39.27.52.43.31.4,1.67,2.26,2.01,2.78-.06.02-.12.04-.18.06-1.21.38-2.17.68-2.3,2.4-.04.52.27,1,.77,1.16l.57.19c.1.03.2.05.31.05.43,0,.81-.28.93-.69.21-.76,1.12-1.7,1.64-1.86.52.16,1.43,1.1,1.64,1.86.11.41.49.69.93.69.1,0,.21-.02.31-.05l.57-.19c.49-.16.81-.64.77-1.16-.13-1.71-1.09-2.02-2.3-2.4-.06-.02-.12-.04-.18-.06.34-.52,1.7-2.38,2.01-2.78.13-.16.32-.3.52-.43.22-.15.42-.29.56-.49.19-.27.3-.61.41-.97.11-.35.22-.71.41-.98.39-.57.92-1.06,1.48-1.59.84-.79,1.71-1.6,2.2-2.75.08-.2.1-.51-.05-.73-.11-.16-.29-.26-.48-.26h-.08l-.1.03c-.48.17-.94.54-1.43.92-.43.33-.95.74-1.3.83-.12-.18-.25-.64-.26-.84-.1-1.46.44-2.13,1.13-2.98.35-.43.75-.92,1.08-1.55.47-.89.82-1.99.93-2.94l.14-1.12-.92.66-2.59,1.84h-.04c-.1-.93-.04-1.87.02-2.86.06-.93.12-1.89.04-2.86-.03-.35-.11-1.34-.89-1.34h-.46Z"/>
        </g>
        <g>
          <path class="cls-2" d="M10.99,28.71c-1.26,0-2.32-.37-3.72-1.01C2.66,25.61-.14,21,.29,16.25v-.08s.14-.15.14-.15l.16-.02c.14,0,.43,0,1.09,1.78.06.11.21.19.38.19.06,0,.12-.01.17-.04l1.27-.53-.16.51c-.79,2.48-.27,4.56,1.69,6.7,0-.17,0-.36,0-.55-.03-.61-.06-1.3.5-1.7l.45-.32-.06.55c-.08.81.81,3.22,1.39,3.74.23.2.65.34,1.03.34.29,0,.52-.08.64-.22.14-.16.32-.24.51-.24.08,0,.17.02.24.05.33.14.8.14,1.26.14s.93,0,1.26-.14c.08-.03.16-.05.24-.05.19,0,.37.09.51.24.13.14.36.22.64.22.38,0,.81-.14,1.03-.34.58-.51,1.47-2.92,1.39-3.74l-.06-.55.45.32c.56.39.53,1.09.5,1.7,0,.19-.02.38,0,.55,1.95-2.13,2.47-4.22,1.69-6.7l-.16-.51,1.27.53c.06.02.11.03.17.03.16,0,.31-.09.39-.23.65-1.75.94-1.75,1.08-1.75h.11l.12.11.05.06v.08c.44,4.76-2.36,9.36-6.96,11.46-1.4.64-2.46,1.01-3.72,1.01Z"/>
          <path class="cls-1" d="M21.38,16.25s.03,0,.05.02c.42,4.69-2.39,9.19-6.83,11.2-1.3.59-2.35.98-3.62.98s-2.31-.39-3.62-.98C2.93,25.45.12,20.96.54,16.27c.01-.02.03-.02.05-.02.25,0,.86,1.62.86,1.62.13.23.37.36.61.36.09,0,.18-.02.27-.05l.77-.32c-.94,2.97,0,5.18,2.07,7.29.32-.74-.26-2.03.49-2.56-.1.92.84,3.39,1.47,3.95.27.24.75.41,1.2.41.33,0,.64-.09.83-.31.09-.1.2-.16.32-.16.05,0,.1,0,.15.03.37.16.87.16,1.36.16s.98,0,1.36-.16c.05-.02.1-.03.15-.03.12,0,.23.06.32.16.19.22.5.31.83.31.45,0,.93-.17,1.2-.41.63-.56,1.57-3.03,1.47-3.95.75.53.17,1.82.49,2.56,2.08-2.11,3.01-4.32,2.07-7.29l.77.32c.09.04.18.05.27.05.25,0,.48-.13.61-.36,0,0,.61-1.62.86-1.62M21.38,15.75c-.26,0-.59,0-1.31,1.89-.04.05-.1.08-.16.08-.03,0-.05,0-.08-.02l-.77-.32-1-.42.33,1.03c.7,2.22.35,4.04-1.18,5.94.02-.61,0-1.33-.61-1.77l-.9-.63.11,1.09c.08.78-.83,3.1-1.3,3.53-.15.14-.51.28-.87.28-.21,0-.38-.05-.46-.14-.18-.21-.44-.32-.7-.32-.12,0-.23.02-.34.07-.28.12-.73.12-1.16.12s-.88,0-1.16-.12c-.11-.05-.22-.07-.34-.07-.26,0-.51.12-.7.32-.08.09-.25.14-.46.14-.36,0-.71-.14-.87-.28-.47-.42-1.39-2.74-1.3-3.53l.11-1.09-.9.63c-.62.44-.64,1.15-.61,1.77-1.54-1.89-1.89-3.72-1.18-5.94l.33-1.03-1,.42-.77.32s-.05.02-.08.02c-.06,0-.12-.03-.16-.08-.71-1.89-1.04-1.89-1.31-1.89-.16,0-.31.07-.42.19l-.11.12v.16c-.45,4.86,2.41,9.57,7.1,11.7,1.43.65,2.52,1.03,3.83,1.03s2.39-.38,3.83-1.03c4.7-2.14,7.56-6.84,7.12-11.7v-.16s-.12-.12-.12-.12c-.11-.12-.26-.19-.42-.19h0Z"/>
        </g>
        <g>
          <path class="cls-2" d="M12.54,7.03c-.36-.19-.43-.83-.54-2.04-.06-.66-.12-1.35-.27-1.86l-.07-.25.25-.06c.1-.02.19-.04.26-.04.35,0,.42.26.46.38.01.05.03.09.05.13.94,1.33,1.21,2.22.18,3.66l-.13.18-.19-.11Z"/>
          <path class="cls-1" d="M12.18,3.04c.25,0,.17.2.3.4.87,1.24,1.14,2.02.18,3.37-.45-.24-.34-2.49-.69-3.74.09-.02.15-.03.21-.03M12.18,2.54c-.09,0-.2.01-.32.04l-.51.12.14.5c.13.49.2,1.16.26,1.81.11,1.18.18,1.97.67,2.23l.39.21.26-.36c1.1-1.55.79-2.58-.18-3.95,0-.02-.01-.04-.02-.05-.1-.37-.34-.56-.7-.56h0Z"/>
        </g>
      </g>
    </g>
  </g>
</svg>