<?xml version="1.0" encoding="UTF-8"?>
<svg id="Layer_2" data-name="Layer 2" xmlns="http://www.w3.org/2000/svg" viewBox="0 0 32.75 32.19">
  <defs>
    <style>
      .cls-1 {
        fill: #a57c32;
      }

      .cls-2 {
        fill: #231f20;
      }

      .cls-3 {
        fill: #ebb548;
      }
    </style>
  </defs>
  <g id="Layer_1-2" data-name="Layer 1">
    <g>
      <g>
        <g>
          <path class="cls-1" d="M4.77,30.11c-.31,0-.62-.11-.85-.32l-.96-.84c-.26-.23-.42-.54-.45-.9-.02-.35.09-.69.33-.96l7.06-8.09c.17-.19.41-.3.66-.3.24,0,.47.1.63.27l1.48,1.54c.32.33.33.84.03,1.18l-6.94,7.95c-.26.29-.62.45-1,.45Z"/>
          <path class="cls-2" d="M10.57,19.22c.1,0,.2.04.27.12l1.48,1.54c.13.14.14.36.01.51l-6.94,7.95c-.17.19-.39.28-.62.28-.19,0-.37-.06-.53-.2l-.95-.83c-.34-.29-.37-.81-.07-1.15l7.07-8.09c.07-.09.18-.13.28-.13M10.57,18.22c-.4,0-.77.17-1.04.47l-7.07,8.09c-.32.36-.48.83-.45,1.32.03.49.25.93.62,1.25l.95.83c.33.29.75.44,1.18.44.52,0,1.02-.22,1.36-.61l6.95-7.95c.47-.54.45-1.34-.04-1.86l-1.48-1.54c-.26-.27-.62-.42-.99-.42h0Z"/>
        </g>
        <g>
          <path class="cls-1" d="M24.05,18.51c-.65,0-1.18-.07-1.5-.12-.44-.07-.78-.41-.86-.86l-.62-3.28c-.1-.52-.27-1.03-.52-1.51l-3.57,4.08c-.16.19-.4.29-.65.29-.23,0-.46-.1-.62-.27l-1.5-1.58c-.31-.32-.32-.82-.02-1.16l3.59-4.11-2.77-1.44c-.29-.15-.49-.43-.54-.75-.11-.77-.36-3.44,1.25-5.17,1.56-1.68,4.54-2.05,5.42-2.12h0c.49,0,.86.23,1.05.6l1.11,2.56.72-.83c.37-.42.9-.66,1.46-.66.48,0,.94.18,1.29.5.79.68.88,1.91.19,2.73l-.99,1.13c.7.37,1.49.6,2.31.66l2.81.22c.48.04.87.38.96.85.27,1.39.62,4.94-2.02,7.74-1.94,2.08-4.33,2.52-5.99,2.52Z"/>
          <path class="cls-2" d="M21.22,1c.23,0,.43.12.53.33l1.12,2.58c.1.21.21.42.34.63l1.19-1.38c.28-.32.68-.49,1.08-.49.34,0,.68.12.96.37.6.52.66,1.42.14,2.04l-1.38,1.57c.88.59,1.92.95,3.04,1.04l2.81.22c.27.02.46.21.51.45.23,1.17.63,4.62-1.89,7.3-1.83,1.96-4.09,2.36-5.63,2.36-.61,0-1.1-.06-1.42-.12-.24-.04-.41-.22-.45-.45l-.63-3.29c-.16-.83-.48-1.59-.93-2.27l-4.02,4.6c-.07.08-.17.12-.27.12s-.19-.04-.26-.11l-1.49-1.58c-.13-.13-.13-.34-.01-.48l3.98-4.57c-.11-.08-.22-.14-.31-.21l-2.99-1.56c-.15-.08-.25-.22-.28-.38-.12-.82-.31-3.22,1.12-4.76,1.39-1.5,4.08-1.88,5.09-1.97.01,0,.02,0,.03,0M21.22,0h-.08c-1.21.1-4.14.52-5.78,2.29-1.76,1.9-1.5,4.76-1.38,5.59.07.48.37.9.8,1.12l2.2,1.15-3.17,3.64c-.46.53-.45,1.32.04,1.83l1.49,1.58c.26.27.61.42.99.42.39,0,.77-.17,1.02-.46l3.04-3.48c.07.22.13.44.18.67l.63,3.3c.1.63.62,1.15,1.28,1.25.33.06.88.13,1.57.13,1.76,0,4.29-.46,6.36-2.68,2.8-2.97,2.43-6.71,2.14-8.17-.14-.69-.7-1.19-1.4-1.25l-2.83-.22c-.53-.04-1.04-.15-1.53-.34l.54-.61c.88-1.04.77-2.59-.24-3.46-.43-.39-1.01-.61-1.61-.61-.7,0-1.37.3-1.83.83l-.2.23-.78-1.81v-.02s-.02-.02-.02-.02c-.27-.54-.82-.88-1.43-.88h0Z"/>
        </g>
      </g>
      <g>
        <path class="cls-3" d="M25.01,31.69c-.17,0-.33-.06-.46-.17l-4.28-3.56-3.74,1.69-1.34-1.4,2.69-2.6-4.88-5.08-2-2.1L1.42,8.47c-.09-.09-.15-.21-.18-.33l-.72-2.96c-.05-.22,0-.44.13-.61.14-.17.34-.27.56-.27h.08l.14.03,2.86.87c.12.04.23.11.32.2l9.32,9.85,1.99,2.11,5.04,5.33,2.31-2.25,1.33,1.39-1.5,3.36,3.77,5.05-1.39,1.27c-.13.12-.31.19-.49.19Z"/>
        <path class="cls-2" d="M1.22,4.8s.04,0,.06,0l2.86.87s.07.03.1.06l9.32,9.85,1.99,2.11,5.24,5.53s.1.07.16.07c.06,0,.11-.02.15-.06l2.16-2.1.75.78-1.43,3.2c-.03.07-.02.16.02.22l3.6,4.82-1.05.97s-.09.06-.15.06c-.05,0-.1-.02-.14-.05l-4.42-3.67s-.09-.05-.14-.05c-.03,0-.06,0-.09.02l-3.58,1.62-.75-.78,2.53-2.45c.09-.08.09-.22,0-.31l-5.07-5.28-2-2.1L1.78,8.13s-.05-.06-.05-.1l-.72-2.96c-.03-.14.08-.27.21-.27M1.22,3.8c-.38,0-.72.17-.96.47-.23.3-.31.67-.23,1.04l.72,2.96c.05.21.16.4.31.56l9.58,10,2,2.1,4.54,4.73-1.98,1.91-.71.69.68.72.75.78.49.51.65-.29,3.13-1.42,4.04,3.36c.22.18.5.28.78.28.31,0,.6-.11.83-.32l1.05-.97.66-.61-.54-.72-3.33-4.45,1.24-2.78.27-.61-.46-.49-.75-.78-.7-.73-.72.7-1.59,1.55-4.7-4.96-1.99-2.11L4.96,5.05c-.15-.15-.33-.27-.53-.33l-2.86-.87c-.12-.04-.24-.05-.36-.05h0Z"/>
      </g>
    </g>
  </g>
</svg>