<?xml version="1.0" encoding="UTF-8"?>
<svg id="Layer_2" data-name="Layer 2" xmlns="http://www.w3.org/2000/svg" viewBox="0 0 47.66 27.56">
  <defs>
    <style>
      .cls-1 {
        stroke: #ebb548;
        stroke-miterlimit: 10;
        stroke-width: .75px;
      }

      .cls-1, .cls-2 {
        fill: none;
      }

      .cls-3 {
        fill: #ebb548;
      }

      .cls-2 {
        stroke: #231f20;
      }
    </style>
  </defs>
  <g id="Layer_1-2" data-name="Layer 1">
    <g>
      <g>
        <g>
          <path class="cls-3" d="M15.86,27.18v-1.59l.52-.35c.11-.06.19-.13.26-.2,0,0,.02-.03.03-.1,0-.06,0-.21-.08-.46-.08-.23-.23-.53-.46-.88l-3.7-5.66-3.68,5.66c-.3.45-.43.72-.48.88-.08.24-.08.38-.07.44,0,.08.03.11.04.12.06.08.15.14.25.2l.52.29v1.59l-1,.07H.38v-1.41l.29-.36c.46-.46.89-.93,1.28-1.37.37-.43.75-.95,1.14-1.53l6.22-9.39L4.01,5.05c-.21-.3-.42-.59-.61-.85-.19-.25-.38-.49-.56-.71-.19-.23-.39-.45-.58-.67-.19-.21-.41-.44-.64-.67l-.29-.29V.44l1-.07h7.56v1.59l-.52.35c-.1.06-.18.11-.22.18-.02.03-.03.09-.04.13,0,.06,0,.2.07.45.08.25.23.55.45.9l2.79,4.55,2.79-4.54c.23-.36.38-.66.46-.91.08-.26.09-.4.08-.47-.08-.16-.16-.22-.27-.28l-.52-.29V.44l1-.07h7.58v1.43l-.31.36c-.24.23-.45.44-.64.65-.2.22-.39.44-.58.67-.19.22-.37.46-.55.7-.19.26-.4.55-.63.88l-5.27,8.05,6.2,9.39c.38.58.77,1.09,1.14,1.52.39.45.82.91,1.29,1.38l.29.29v1.41l-1,.07h-7.63Z"/>
          <path class="cls-1" d="M15.86,27.18v-1.59l.52-.35c.11-.06.19-.13.26-.2,0,0,.02-.03.03-.1,0-.06,0-.21-.08-.46-.08-.23-.23-.53-.46-.88l-3.7-5.66-3.68,5.66c-.3.45-.43.72-.48.88-.08.24-.08.38-.07.44,0,.08.03.11.04.12.06.08.15.14.25.2l.52.29v1.59l-1,.07H.38v-1.41l.29-.36c.46-.46.89-.93,1.28-1.37.37-.43.75-.95,1.14-1.53l6.22-9.39L4.01,5.05c-.21-.3-.42-.59-.61-.85-.19-.25-.38-.49-.56-.71-.19-.23-.39-.45-.58-.67-.19-.21-.41-.44-.64-.67l-.29-.29V.44l1-.07h7.56v1.59l-.52.35c-.1.06-.18.11-.22.18-.02.03-.03.09-.04.13,0,.06,0,.2.07.45.08.25.23.55.45.9l2.79,4.55,2.79-4.54c.23-.36.38-.66.46-.91.08-.26.09-.4.08-.47-.08-.16-.16-.22-.27-.28l-.52-.29V.44l1-.07h7.58v1.43l-.31.36c-.24.23-.45.44-.64.65-.2.22-.39.44-.58.67-.19.22-.37.46-.55.7-.19.26-.4.55-.63.88l-5.27,8.05,6.2,9.39c.38.58.77,1.09,1.14,1.52.39.45.82.91,1.29,1.38l.29.29v1.41l-1,.07h-7.63Z"/>
        </g>
        <g>
          <path class="cls-3" d="M27.19,27.18v-1.57l.5-.36c.32-.19.56-.53.74-1.04.22-.63.33-1.46.33-2.45V5.36c0-.08-.01-.1-.06-.14-.1-.08-.27-.13-.5-.13h-2.23v-1.57l.49-.36L31.14.38h7.47c1.26,0,2.43.2,3.49.6,1.07.41,2,.99,2.77,1.73.76.74,1.37,1.63,1.79,2.63.42,1.01.63,2.11.63,3.28s-.21,2.29-.63,3.29c-.42,1.01-1.02,1.9-1.79,2.64-.77.75-1.7,1.33-2.76,1.75-1.06.41-2.23.61-3.49.61h-4.22v4.85c0,.99.11,1.82.33,2.45.18.51.42.85.74,1.04l.5.29v1.57l-1,.07h-7.76ZM38.39,11.84c1.09,0,1.9-.27,2.48-.84.57-.56.85-1.34.85-2.38,0-.5-.08-.96-.23-1.36-.15-.38-.35-.7-.62-.97-.27-.27-.6-.47-1-.62-.42-.16-.91-.24-1.46-.24h-4v6.41h4Z"/>
          <path class="cls-1" d="M27.19,27.18v-1.57l.5-.36c.32-.19.56-.53.74-1.04.22-.63.33-1.46.33-2.45V5.36c0-.08-.01-.1-.06-.14-.1-.08-.27-.13-.5-.13h-2.23v-1.57l.49-.36L31.14.38h7.47c1.26,0,2.43.2,3.49.6,1.07.41,2,.99,2.77,1.73.76.74,1.37,1.63,1.79,2.63.42,1.01.63,2.11.63,3.28s-.21,2.29-.63,3.29c-.42,1.01-1.02,1.9-1.79,2.64-.77.75-1.7,1.33-2.76,1.75-1.06.41-2.23.61-3.49.61h-4.22v4.85c0,.99.11,1.82.33,2.45.18.51.42.85.74,1.04l.5.29v1.57l-1,.07h-7.76ZM38.39,11.84c1.09,0,1.9-.27,2.48-.84.57-.56.85-1.34.85-2.38,0-.5-.08-.96-.23-1.36-.15-.38-.35-.7-.62-.97-.27-.27-.6-.47-1-.62-.42-.16-.91-.24-1.46-.24h-4v6.41h4Z"/>
        </g>
      </g>
      <g>
        <g>
          <path class="cls-2" d="M15.86,27.18v-1.59l.52-.35c.11-.06.19-.13.26-.2,0,0,.02-.03.03-.1,0-.06,0-.21-.08-.46-.08-.23-.23-.53-.46-.88l-3.7-5.66-3.68,5.66c-.3.45-.43.72-.48.88-.08.24-.08.38-.07.44,0,.08.03.11.04.12.06.08.15.14.25.2l.52.29v1.59l-1,.07H.38v-1.41l.29-.36c.46-.46.89-.93,1.28-1.37.37-.43.75-.95,1.14-1.53l6.22-9.39L4.01,5.05c-.21-.3-.42-.59-.61-.85-.19-.25-.38-.49-.56-.71-.19-.23-.39-.45-.58-.67-.19-.21-.41-.44-.64-.67l-.29-.29V.44l1-.07h7.56v1.59l-.52.35c-.1.06-.18.11-.22.18-.02.03-.03.09-.04.13,0,.06,0,.2.07.45.08.25.23.55.45.9l2.79,4.55,2.79-4.54c.23-.36.38-.66.46-.91.08-.26.09-.4.08-.47-.08-.16-.16-.22-.27-.28l-.52-.29V.44l1-.07h7.58v1.43l-.31.36c-.24.23-.45.44-.64.65-.2.22-.39.44-.58.67-.19.22-.37.46-.55.7-.19.26-.4.55-.63.88l-5.27,8.05,6.2,9.39c.38.58.77,1.09,1.14,1.52.39.45.82.91,1.29,1.38l.29.29v1.41l-1,.07h-7.63Z"/>
          <path class="cls-2" d="M15.86,27.18v-1.59l.52-.35c.11-.06.19-.13.26-.2,0,0,.02-.03.03-.1,0-.06,0-.21-.08-.46-.08-.23-.23-.53-.46-.88l-3.7-5.66-3.68,5.66c-.3.45-.43.72-.48.88-.08.24-.08.38-.07.44,0,.08.03.11.04.12.06.08.15.14.25.2l.52.29v1.59l-1,.07H.38v-1.41l.29-.36c.46-.46.89-.93,1.28-1.37.37-.43.75-.95,1.14-1.53l6.22-9.39L4.01,5.05c-.21-.3-.42-.59-.61-.85-.19-.25-.38-.49-.56-.71-.19-.23-.39-.45-.58-.67-.19-.21-.41-.44-.64-.67l-.29-.29V.44l1-.07h7.56v1.59l-.52.35c-.1.06-.18.11-.22.18-.02.03-.03.09-.04.13,0,.06,0,.2.07.45.08.25.23.55.45.9l2.79,4.55,2.79-4.54c.23-.36.38-.66.46-.91.08-.26.09-.4.08-.47-.08-.16-.16-.22-.27-.28l-.52-.29V.44l1-.07h7.58v1.43l-.31.36c-.24.23-.45.44-.64.65-.2.22-.39.44-.58.67-.19.22-.37.46-.55.7-.19.26-.4.55-.63.88l-5.27,8.05,6.2,9.39c.38.58.77,1.09,1.14,1.52.39.45.82.91,1.29,1.38l.29.29v1.41l-1,.07h-7.63Z"/>
        </g>
        <g>
          <path class="cls-2" d="M27.19,27.18v-1.57l.5-.36c.32-.19.56-.53.74-1.04.22-.63.33-1.46.33-2.45V5.36c0-.08-.01-.1-.06-.14-.1-.08-.27-.13-.5-.13h-2.23v-1.57l.49-.36L31.14.38h7.47c1.26,0,2.43.2,3.49.6,1.07.41,2,.99,2.77,1.73.76.74,1.37,1.63,1.79,2.63.42,1.01.63,2.11.63,3.28s-.21,2.29-.63,3.29c-.42,1.01-1.02,1.9-1.79,2.64-.77.75-1.7,1.33-2.76,1.75-1.06.41-2.23.61-3.49.61h-4.22v4.85c0,.99.11,1.82.33,2.45.18.51.42.85.74,1.04l.5.29v1.57l-1,.07h-7.76ZM38.39,11.84c1.09,0,1.9-.27,2.48-.84.57-.56.85-1.34.85-2.38,0-.5-.08-.96-.23-1.36-.15-.38-.35-.7-.62-.97-.27-.27-.6-.47-1-.62-.42-.16-.91-.24-1.46-.24h-4v6.41h4Z"/>
          <path class="cls-2" d="M27.19,27.18v-1.57l.5-.36c.32-.19.56-.53.74-1.04.22-.63.33-1.46.33-2.45V5.36c0-.08-.01-.1-.06-.14-.1-.08-.27-.13-.5-.13h-2.23v-1.57l.49-.36L31.14.38h7.47c1.26,0,2.43.2,3.49.6,1.07.41,2,.99,2.77,1.73.76.74,1.37,1.63,1.79,2.63.42,1.01.63,2.11.63,3.28s-.21,2.29-.63,3.29c-.42,1.01-1.02,1.9-1.79,2.64-.77.75-1.7,1.33-2.76,1.75-1.06.41-2.23.61-3.49.61h-4.22v4.85c0,.99.11,1.82.33,2.45.18.51.42.85.74,1.04l.5.29v1.57l-1,.07h-7.76ZM38.39,11.84c1.09,0,1.9-.27,2.48-.84.57-.56.85-1.34.85-2.38,0-.5-.08-.96-.23-1.36-.15-.38-.35-.7-.62-.97-.27-.27-.6-.47-1-.62-.42-.16-.91-.24-1.46-.24h-4v6.41h4Z"/>
        </g>
      </g>
    </g>
  </g>
</svg>